<svg xmlns="http://www.w3.org/2000/svg" viewBox="0 0 1200 630" width="1200" height="630">
  <defs>
    <linearGradient id="bg-grad" x1="0%" y1="0%" x2="100%" y2="100%">
      <stop offset="0%" stop-color="#09090b" />
      <stop offset="50%" stop-color="#0f0f13" />
      <stop offset="100%" stop-color="#18181b" />
    </linearGradient>
    <pattern id="grid" width="40" height="40" patternUnits="userSpaceOnUse">
      <path d="M 40 0 L 0 0 0 40" fill="none" stroke="#27272a" stroke-width="1" stroke-opacity="0.3"/>
    </pattern>
  </defs>

  <!-- Background -->
  <rect width="1200" height="630" fill="url(#bg-grad)" />
  <rect width="1200" height="630" fill="url(#grid)" />

  <!-- Frame border -->
  <rect x="40" y="40" width="1120" height="550" fill="none" stroke="#27272a" stroke-width="1.5" />
  
  <!-- Corner accents -->
  <path d="M 35 60 L 35 35 L 60 35" fill="none" stroke="#22c55e" stroke-width="3" />
  <path d="M 1140 35 L 1165 35 L 1165 60" fill="none" stroke="#22c55e" stroke-width="3" />
  <path d="M 35 570 L 35 595 L 60 595" fill="none" stroke="#22c55e" stroke-width="3" />
  <path d="M 1140 595 L 1165 595 L 1165 570" fill="none" stroke="#22c55e" stroke-width="3" />

  <!-- Top badge -->
  <rect x="80" y="80" width="200" height="32" rx="6" fill="#18181b" stroke="#27272a" stroke-width="1" />
  <circle cx="98" cy="96" r="4" fill="#22c55e" />
  <text x="112" y="101" fill="#a1a1aa" font-family="-apple-system, BlinkMacSystemFont, 'Segoe UI', Roboto, sans-serif" font-size="12" font-weight="700" letter-spacing="1">NEXT.JS 16 • REACT 19</text>

  <!-- Title -->
  <text x="80" y="200" fill="#ffffff" font-family="-apple-system, BlinkMacSystemFont, 'Segoe UI', Roboto, sans-serif" font-size="52" font-weight="800" letter-spacing="-1.5">
    Developer Portfolio Template
  </text>

  <!-- Tagline -->
  <text x="80" y="255" fill="#a1a1aa" font-family="-apple-system, BlinkMacSystemFont, 'Segoe UI', Roboto, sans-serif" font-size="20" font-weight="400">
    Brutalist aesthetic, 3D interactive hero, AI chat assistant, Markdown blog,
  </text>
  <text x="80" y="288" fill="#a1a1aa" font-family="-apple-system, BlinkMacSystemFont, 'Segoe UI', Roboto, sans-serif" font-size="20" font-weight="400">
    404 minigame, and optional Supabase CMS with TOTP 2FA admin studio.
  </text>

  <!-- Feature Pills -->
  <g transform="translate(80, 350)">
    <rect x="0" y="0" width="180" height="42" rx="6" fill="#18181b" stroke="#27272a" />
    <text x="20" y="26" fill="#e4e4e7" font-family="-apple-system, BlinkMacSystemFont, 'Segoe UI', Roboto, sans-serif" font-size="13" font-weight="500">✨ 3D Hero Canvas</text>

    <rect x="195" y="0" width="180" height="42" rx="6" fill="#18181b" stroke="#27272a" />
    <text x="215" y="26" fill="#e4e4e7" font-family="-apple-system, BlinkMacSystemFont, 'Segoe UI', Roboto, sans-serif" font-size="13" font-weight="500">🤖 AI Portfolio Bot</text>

    <rect x="390" y="0" width="180" height="42" rx="6" fill="#18181b" stroke="#27272a" />
    <text x="410" y="26" fill="#e4e4e7" font-family="-apple-system, BlinkMacSystemFont, 'Segoe UI', Roboto, sans-serif" font-size="13" font-weight="500">⚡ Tailwind CSS 4</text>

    <rect x="585" y="0" width="190" height="42" rx="6" fill="#18181b" stroke="#27272a" />
    <text x="605" y="26" fill="#e4e4e7" font-family="-apple-system, BlinkMacSystemFont, 'Segoe UI', Roboto, sans-serif" font-size="13" font-weight="500">🎮 404 Cyber Game</text>

    <rect x="790" y="0" width="220" height="42" rx="6" fill="#18181b" stroke="#27272a" />
    <text x="810" y="26" fill="#e4e4e7" font-family="-apple-system, BlinkMacSystemFont, 'Segoe UI', Roboto, sans-serif" font-size="13" font-weight="500">🔐 Supabase CMS &amp; 2FA</text>
  </g>

  <!-- Live Demo Card -->
  <g transform="translate(80, 470)">
    <rect x="0" y="0" width="1040" height="66" rx="8" fill="#121216" stroke="#22c55e" stroke-width="1.5" stroke-opacity="0.8" />
    <text x="28" y="40" fill="#22c55e" font-family="monospace" font-size="15" font-weight="700">LIVE DEMO ↗</text>
    <text x="160" y="40" fill="#ffffff" font-family="monospace" font-size="15" font-weight="600">https://developer-portfolio-template.hazemhassine.space/</text>
  </g>
</svg>
